<svg xmlns="http://www.w3.org/2000/svg" xml:space="preserve" width="1500" height="58" data-id="lg_Rii7tm8GifMWDA7CVZ" data-version="1"><g data-padding="20"><g fill="#f60"><path d="M591.272 53.532h-11.819l17.363-52.6h19.096l18.017 52.6h-12.252L607.124 9.075l3.744 1.511h-9.297l3.898-1.51Zm29.25-13.041h-27.883l3.6-9.798h20.616Zm32.791 14.273h-.5q-6.853 0-10.52-4.437-3.677-4.427-3.677-13.369V14.042h11.53v23.494q0 3.176 1.8 5.043 1.8 1.877 4.832 1.877 3.1 0 5.044-1.944t1.944-5.265V14.042h11.53v39.49h-9.153V36.891h.79q0 5.977-1.55 9.98-1.55 3.995-4.572 5.949-3.032 1.944-7.498 1.944m56.142-.722H703.9q-5.977 0-9.653-1.482-3.677-1.473-5.371-4.966t-1.694-9.48V3.376h10.741v35.17q0 2.81 1.473 4.292 1.482 1.473 4.215 1.473h5.843Zm0-31.569h-28.249v-8.431h28.249Zm26.882 32.435q-5.188 0-9.23-1.626-4.033-1.617-6.805-4.428-2.782-2.81-4.216-6.448-1.444-3.638-1.444-7.68V33.07q0-4.11 1.473-7.815 1.482-3.716 4.331-6.526 2.84-2.81 6.882-4.427 4.033-1.627 9.009-1.627 5.11 0 9.114 1.627 3.995 1.616 6.805 4.427t4.331 6.526q1.511 3.705 1.511 7.815v1.655q0 4.043-1.443 7.68t-4.216 6.45-6.805 4.427q-4.042 1.626-9.297 1.626m0-9.73q3.388 0 5.62-1.444t3.417-4.033q1.194-2.598 1.194-5.765 0-3.388-1.223-5.948-1.232-2.56-3.503-4.071-2.262-1.511-5.505-1.511-3.176 0-5.477 1.51-2.31 1.512-3.494 4.072-1.193 2.56-1.193 5.948 0 3.167 1.155 5.765 1.155 2.59 3.455 4.033 2.31 1.444 5.554 1.444m56.42 8.354h-10.809V.932h16.286l12.04 29.54h1.367L823.527.931h16.584v52.6h-11.675V8.642l1.656.145-13.908 34.08h-11.242l-13.985-34.08 1.8-.145Zm91.522 0h-9.153V41.857h-1.944V29.181q0-3.031-1.434-4.542-1.444-1.512-4.62-1.512-1.579 0-4.178.068-2.589.077-5.332.221-2.733.145-4.976.289v-9.73q1.665-.145 3.898-.29t4.61-.22q2.378-.068 4.467-.068 6.054 0 10.202 1.732 4.138 1.723 6.304 5.217 2.156 3.503 2.156 8.98Zm-21.762 1.01q-4.254 0-7.459-1.51t-5.005-4.36-1.8-6.815q0-4.321 2.233-7.093t6.266-4.11q4.033-1.328 9.298-1.328h8.43v6.41h-8.498q-3.032 0-4.648 1.482-1.627 1.473-1.627 3.994 0 2.378 1.627 3.86 1.616 1.473 4.648 1.473 1.944 0 3.494-.684t2.56-2.339q1.001-1.665 1.146-4.62l2.743 2.888q-.366 4.11-1.983 6.92-1.627 2.81-4.466 4.322-2.849 1.51-6.959 1.51m55.064-.5h-5.554q-5.977 0-9.653-1.482-3.677-1.473-5.371-4.966t-1.694-9.48V3.376h10.741v35.17q0 2.81 1.473 4.292 1.482 1.473 4.215 1.473h5.843Zm0-31.569h-28.259v-8.431h28.259Zm25.36 32.435q-5.11 0-8.902-1.694-3.783-1.693-6.304-4.58-2.522-2.879-3.744-6.517t-1.223-7.536v-1.367q0-4.033 1.29-7.748 1.3-3.715 3.821-6.593 2.522-2.887 6.304-4.543 3.793-1.655 8.692-1.655 5.332 0 9.441 2.05 4.1 2.06 6.555 5.736 2.445 3.677 2.733 8.432h-11.309q-.289-2.666-2.127-4.505t-5.293-1.838q-2.888 0-4.794 1.444-1.915 1.434-2.849 3.955t-.933 5.987q0 3.167.856 5.727.867 2.56 2.782 3.965 1.906 1.405 5.005 1.405 2.31 0 3.927-.827 1.626-.828 2.598-2.31.973-1.473 1.184-3.417h11.242q-.212 4.899-2.733 8.604-2.522 3.716-6.709 5.766-4.177 2.06-9.51 2.06m37.836-1.377h-11.53V.932h11.53V31.27h-1.733q0-5.987 1.521-10.087 1.511-4.11 4.466-6.237t7.42-2.127h.501q6.564 0 10.02 4.65 3.464 4.648 3.464 13.58v22.483h-11.53V30.327q0-3.234-1.915-5.217-1.906-1.983-5.005-1.983-3.244 0-5.226 2.089t-1.983 5.544Z" font-family="Sora" font-size="74.874"/><path fill-rule="evenodd" d="M553.108 28.447c-.546-1.03-2-2.183-2-2.183l-6.004-15.705c-1.273-2.97-4.911-4.547-6.488-4.547h-29.469c-1.577 0-5.275 1.576-6.488 4.547l-6.003 15.705s-1.455 1.152-2.001 2.183-1.091 1.94-1.091 8.914c0 6.79 1.394 9.216 3.031 10.004l1.698.122v6.367c0 2.061 1.213 3.213 3.214 3.213h1.758c2.001 0 3.032-1.152 3.032-3.213v-6.367h35.108v6.367c0 2.061 1.092 3.213 3.032 3.213h1.759c2 0 3.213-1.152 3.213-3.213v-6.367l1.698-.122c1.698-.848 3.032-3.274 3.032-10.004.06-6.974-.546-7.883-1.03-8.914m-47.843 12.188c-2.122 0-3.88-1.759-3.88-3.88s1.758-3.882 3.88-3.882 3.881 1.759 3.881 3.881-1.698 3.88-3.88 3.88m37.351 0c-2.122 0-3.88-1.758-3.88-3.88s1.758-3.88 3.88-3.88 3.88 1.758 3.88 3.88-1.758 3.88-3.88 3.88m-.121-17.098h-37.23s-.728.06-.486-.667c.182-.607 2.668-6.913 3.214-8.61.242-.607 1.455-1.941 3.092-1.88h25.65c1.637-.122 2.85 1.273 3.092 1.88.546 1.697 3.032 8.003 3.214 8.61.181.727-.546.667-.546.667" vector-effect="non-scaling-stroke"/></g><path fill="transparent" stroke="transparent" d="M483.5 0h533v58h-533z"/></g></svg>